<mxfile host="Electron" agent="Mozilla/5.0 (Windows NT 10.0; Win64; x64) AppleWebKit/537.36 (KHTML, like Gecko) draw.io/28.0.6 Chrome/138.0.7204.100 Electron/37.2.3 Safari/537.36" version="28.0.6">
  <diagram name="Systems and Components" id="9_qvO8FjWHNSWzgPNCN-">
    <mxGraphModel dx="1026" dy="1722" grid="1" gridSize="10" guides="1" tooltips="1" connect="1" arrows="1" fold="1" page="1" pageScale="1" pageWidth="850" pageHeight="1100" math="0" shadow="0">
      <root>
        <mxCell id="0" />
        <mxCell id="1" parent="0" />
        <mxCell id="BDBOMCY-2Hl1vsMtAM6a-26" style="edgeStyle=orthogonalEdgeStyle;rounded=0;orthogonalLoop=1;jettySize=auto;html=1;entryX=1;entryY=0.5;entryDx=0;entryDy=0;" edge="1" parent="1" source="BDBOMCY-2Hl1vsMtAM6a-3" target="BDBOMCY-2Hl1vsMtAM6a-12">
          <mxGeometry relative="1" as="geometry">
            <Array as="points">
              <mxPoint x="540" y="159" />
              <mxPoint x="540" y="159" />
            </Array>
          </mxGeometry>
        </mxCell>
        <mxCell id="BDBOMCY-2Hl1vsMtAM6a-30" style="edgeStyle=orthogonalEdgeStyle;rounded=0;orthogonalLoop=1;jettySize=auto;html=1;entryX=0;entryY=0.5;entryDx=0;entryDy=0;" edge="1" parent="1" source="BDBOMCY-2Hl1vsMtAM6a-3" target="BDBOMCY-2Hl1vsMtAM6a-28">
          <mxGeometry relative="1" as="geometry">
            <Array as="points">
              <mxPoint x="830" y="165" />
              <mxPoint x="830" y="147" />
            </Array>
          </mxGeometry>
        </mxCell>
        <mxCell id="BDBOMCY-2Hl1vsMtAM6a-37" style="edgeStyle=orthogonalEdgeStyle;rounded=0;orthogonalLoop=1;jettySize=auto;html=1;entryX=0;entryY=0.5;entryDx=0;entryDy=0;" edge="1" parent="1" source="BDBOMCY-2Hl1vsMtAM6a-3" target="BDBOMCY-2Hl1vsMtAM6a-36">
          <mxGeometry relative="1" as="geometry">
            <Array as="points">
              <mxPoint x="850" y="165" />
              <mxPoint x="850" y="225" />
            </Array>
          </mxGeometry>
        </mxCell>
        <mxCell id="BDBOMCY-2Hl1vsMtAM6a-3" value="&lt;p style=&quot;margin:0px;margin-top:6px;text-align:center;&quot;&gt;&lt;b&gt;TilePositionComponent&lt;/b&gt;&lt;/p&gt;&lt;hr size=&quot;1&quot; style=&quot;border-style:solid;&quot;&gt;&lt;p style=&quot;margin:0px;margin-left:8px;&quot;&gt;+ tileX: int&lt;br&gt;+ tileY: int&lt;/p&gt;" style="align=left;overflow=fill;html=1;dropTarget=0;whiteSpace=wrap;" vertex="1" parent="1">
          <mxGeometry x="620" y="120" width="180" height="90" as="geometry" />
        </mxCell>
        <mxCell id="BDBOMCY-2Hl1vsMtAM6a-4" value="" style="shape=component;jettyWidth=8;jettyHeight=4;" vertex="1" parent="BDBOMCY-2Hl1vsMtAM6a-3">
          <mxGeometry x="1" width="20" height="20" relative="1" as="geometry">
            <mxPoint x="-24" y="4" as="offset" />
          </mxGeometry>
        </mxCell>
        <mxCell id="BDBOMCY-2Hl1vsMtAM6a-32" style="edgeStyle=orthogonalEdgeStyle;rounded=0;orthogonalLoop=1;jettySize=auto;html=1;entryX=0;entryY=0.5;entryDx=0;entryDy=0;" edge="1" parent="1" source="BDBOMCY-2Hl1vsMtAM6a-5" target="BDBOMCY-2Hl1vsMtAM6a-28">
          <mxGeometry relative="1" as="geometry">
            <Array as="points">
              <mxPoint x="830" y="285" />
              <mxPoint x="830" y="147" />
            </Array>
          </mxGeometry>
        </mxCell>
        <mxCell id="BDBOMCY-2Hl1vsMtAM6a-5" value="&lt;p style=&quot;margin:0px;margin-top:6px;text-align:center;&quot;&gt;&lt;b&gt;BuildingComponent&lt;/b&gt;&lt;/p&gt;&lt;hr size=&quot;1&quot; style=&quot;border-style:solid;&quot;&gt;&lt;p style=&quot;margin:0px;margin-left:8px;&quot;&gt;+ buildingType: BuildingType&lt;/p&gt;" style="align=left;overflow=fill;html=1;dropTarget=0;whiteSpace=wrap;" vertex="1" parent="1">
          <mxGeometry x="620" y="240" width="180" height="90" as="geometry" />
        </mxCell>
        <mxCell id="BDBOMCY-2Hl1vsMtAM6a-6" value="" style="shape=component;jettyWidth=8;jettyHeight=4;" vertex="1" parent="BDBOMCY-2Hl1vsMtAM6a-5">
          <mxGeometry x="1" width="20" height="20" relative="1" as="geometry">
            <mxPoint x="-24" y="4" as="offset" />
          </mxGeometry>
        </mxCell>
        <mxCell id="BDBOMCY-2Hl1vsMtAM6a-11" value="RenderSystem" style="swimlane;fontStyle=0;childLayout=stackLayout;horizontal=1;startSize=26;fillColor=none;horizontalStack=0;resizeParent=1;resizeParentMax=0;resizeLast=0;collapsible=1;marginBottom=0;whiteSpace=wrap;html=1;" vertex="1" parent="1">
          <mxGeometry x="340" y="120" width="140" height="52" as="geometry" />
        </mxCell>
        <mxCell id="BDBOMCY-2Hl1vsMtAM6a-12" value="+ render()" style="text;strokeColor=none;fillColor=none;align=left;verticalAlign=top;spacingLeft=4;spacingRight=4;overflow=hidden;rotatable=0;points=[[0,0.5],[1,0.5]];portConstraint=eastwest;whiteSpace=wrap;html=1;" vertex="1" parent="BDBOMCY-2Hl1vsMtAM6a-11">
          <mxGeometry y="26" width="140" height="26" as="geometry" />
        </mxCell>
        <mxCell id="BDBOMCY-2Hl1vsMtAM6a-27" style="edgeStyle=orthogonalEdgeStyle;rounded=0;orthogonalLoop=1;jettySize=auto;html=1;entryX=1;entryY=0.5;entryDx=0;entryDy=0;" edge="1" parent="1" source="BDBOMCY-2Hl1vsMtAM6a-15" target="BDBOMCY-2Hl1vsMtAM6a-12">
          <mxGeometry relative="1" as="geometry">
            <Array as="points">
              <mxPoint x="600" y="405" />
              <mxPoint x="600" y="159" />
            </Array>
          </mxGeometry>
        </mxCell>
        <mxCell id="BDBOMCY-2Hl1vsMtAM6a-31" style="edgeStyle=orthogonalEdgeStyle;rounded=0;orthogonalLoop=1;jettySize=auto;html=1;entryX=0;entryY=0.5;entryDx=0;entryDy=0;" edge="1" parent="1" source="BDBOMCY-2Hl1vsMtAM6a-15" target="BDBOMCY-2Hl1vsMtAM6a-28">
          <mxGeometry relative="1" as="geometry">
            <Array as="points">
              <mxPoint x="830" y="405" />
              <mxPoint x="830" y="147" />
            </Array>
          </mxGeometry>
        </mxCell>
        <mxCell id="BDBOMCY-2Hl1vsMtAM6a-38" style="edgeStyle=orthogonalEdgeStyle;rounded=0;orthogonalLoop=1;jettySize=auto;html=1;entryX=0;entryY=0.5;entryDx=0;entryDy=0;" edge="1" parent="1" source="BDBOMCY-2Hl1vsMtAM6a-15" target="BDBOMCY-2Hl1vsMtAM6a-36">
          <mxGeometry relative="1" as="geometry">
            <Array as="points">
              <mxPoint x="850" y="405" />
              <mxPoint x="850" y="225" />
            </Array>
          </mxGeometry>
        </mxCell>
        <mxCell id="BDBOMCY-2Hl1vsMtAM6a-15" value="&lt;p style=&quot;margin:0px;margin-top:6px;text-align:center;&quot;&gt;&lt;b&gt;RenderComponent&lt;/b&gt;&lt;/p&gt;&lt;hr size=&quot;1&quot; style=&quot;border-style:solid;&quot;&gt;&lt;p style=&quot;margin:0px;margin-left:8px;&quot;&gt;+ spriteType: SpriteType&lt;/p&gt;&lt;p style=&quot;margin:0px;margin-left:8px;&quot;&gt;+ animationType: AnimationType&lt;/p&gt;" style="align=left;overflow=fill;html=1;dropTarget=0;whiteSpace=wrap;" vertex="1" parent="1">
          <mxGeometry x="620" y="360" width="180" height="90" as="geometry" />
        </mxCell>
        <mxCell id="BDBOMCY-2Hl1vsMtAM6a-16" value="" style="shape=component;jettyWidth=8;jettyHeight=4;" vertex="1" parent="BDBOMCY-2Hl1vsMtAM6a-15">
          <mxGeometry x="1" width="20" height="20" relative="1" as="geometry">
            <mxPoint x="-24" y="4" as="offset" />
          </mxGeometry>
        </mxCell>
        <mxCell id="BDBOMCY-2Hl1vsMtAM6a-17" value="World" style="swimlane;fontStyle=1;align=center;verticalAlign=top;childLayout=stackLayout;horizontal=1;startSize=26;horizontalStack=0;resizeParent=1;resizeParentMax=0;resizeLast=0;collapsible=1;marginBottom=0;whiteSpace=wrap;html=1;" vertex="1" parent="1">
          <mxGeometry x="40" y="120" width="160" height="86" as="geometry" />
        </mxCell>
        <mxCell id="BDBOMCY-2Hl1vsMtAM6a-18" value="+ field: type" style="text;strokeColor=none;fillColor=none;align=left;verticalAlign=top;spacingLeft=4;spacingRight=4;overflow=hidden;rotatable=0;points=[[0,0.5],[1,0.5]];portConstraint=eastwest;whiteSpace=wrap;html=1;" vertex="1" parent="BDBOMCY-2Hl1vsMtAM6a-17">
          <mxGeometry y="26" width="160" height="26" as="geometry" />
        </mxCell>
        <mxCell id="BDBOMCY-2Hl1vsMtAM6a-19" value="" style="line;strokeWidth=1;fillColor=none;align=left;verticalAlign=middle;spacingTop=-1;spacingLeft=3;spacingRight=3;rotatable=0;labelPosition=right;points=[];portConstraint=eastwest;strokeColor=inherit;" vertex="1" parent="BDBOMCY-2Hl1vsMtAM6a-17">
          <mxGeometry y="52" width="160" height="8" as="geometry" />
        </mxCell>
        <mxCell id="BDBOMCY-2Hl1vsMtAM6a-20" value="+ method(type): type" style="text;strokeColor=none;fillColor=none;align=left;verticalAlign=top;spacingLeft=4;spacingRight=4;overflow=hidden;rotatable=0;points=[[0,0.5],[1,0.5]];portConstraint=eastwest;whiteSpace=wrap;html=1;" vertex="1" parent="BDBOMCY-2Hl1vsMtAM6a-17">
          <mxGeometry y="60" width="160" height="26" as="geometry" />
        </mxCell>
        <mxCell id="BDBOMCY-2Hl1vsMtAM6a-22" style="edgeStyle=orthogonalEdgeStyle;rounded=0;orthogonalLoop=1;jettySize=auto;html=1;entryX=0;entryY=0.5;entryDx=0;entryDy=0;" edge="1" parent="1" source="BDBOMCY-2Hl1vsMtAM6a-18" target="BDBOMCY-2Hl1vsMtAM6a-12">
          <mxGeometry relative="1" as="geometry" />
        </mxCell>
        <mxCell id="BDBOMCY-2Hl1vsMtAM6a-28" value="«Entity»&lt;br&gt;&lt;b&gt;Building&lt;/b&gt;" style="html=1;whiteSpace=wrap;" vertex="1" parent="1">
          <mxGeometry x="930" y="122" width="110" height="50" as="geometry" />
        </mxCell>
        <mxCell id="BDBOMCY-2Hl1vsMtAM6a-35" style="edgeStyle=orthogonalEdgeStyle;rounded=0;orthogonalLoop=1;jettySize=auto;html=1;entryX=0;entryY=0.5;entryDx=0;entryDy=0;" edge="1" parent="1" source="BDBOMCY-2Hl1vsMtAM6a-33" target="BDBOMCY-2Hl1vsMtAM6a-28">
          <mxGeometry relative="1" as="geometry">
            <Array as="points">
              <mxPoint x="830" y="525" />
              <mxPoint x="830" y="147" />
            </Array>
          </mxGeometry>
        </mxCell>
        <mxCell id="BDBOMCY-2Hl1vsMtAM6a-39" style="edgeStyle=orthogonalEdgeStyle;rounded=0;orthogonalLoop=1;jettySize=auto;html=1;entryX=0;entryY=0.5;entryDx=0;entryDy=0;" edge="1" parent="1" source="BDBOMCY-2Hl1vsMtAM6a-33" target="BDBOMCY-2Hl1vsMtAM6a-36">
          <mxGeometry relative="1" as="geometry">
            <Array as="points">
              <mxPoint x="850" y="525" />
              <mxPoint x="850" y="225" />
            </Array>
          </mxGeometry>
        </mxCell>
        <mxCell id="BDBOMCY-2Hl1vsMtAM6a-33" value="&lt;p style=&quot;margin:0px;margin-top:6px;text-align:center;&quot;&gt;&lt;b&gt;OwnerComponent&lt;/b&gt;&lt;/p&gt;&lt;hr size=&quot;1&quot; style=&quot;border-style:solid;&quot;&gt;&lt;p style=&quot;margin:0px;margin-left:8px;&quot;&gt;+ playerID: UUID&lt;/p&gt;" style="align=left;overflow=fill;html=1;dropTarget=0;whiteSpace=wrap;" vertex="1" parent="1">
          <mxGeometry x="620" y="480" width="180" height="90" as="geometry" />
        </mxCell>
        <mxCell id="BDBOMCY-2Hl1vsMtAM6a-34" value="" style="shape=component;jettyWidth=8;jettyHeight=4;" vertex="1" parent="BDBOMCY-2Hl1vsMtAM6a-33">
          <mxGeometry x="1" width="20" height="20" relative="1" as="geometry">
            <mxPoint x="-24" y="4" as="offset" />
          </mxGeometry>
        </mxCell>
        <mxCell id="BDBOMCY-2Hl1vsMtAM6a-36" value="«Entity»&lt;br&gt;&lt;b&gt;Unit&lt;/b&gt;" style="html=1;whiteSpace=wrap;" vertex="1" parent="1">
          <mxGeometry x="930" y="200" width="110" height="50" as="geometry" />
        </mxCell>
        <mxCell id="BDBOMCY-2Hl1vsMtAM6a-41" value="Player" style="swimlane;fontStyle=1;align=center;verticalAlign=top;childLayout=stackLayout;horizontal=1;startSize=26;horizontalStack=0;resizeParent=1;resizeParentMax=0;resizeLast=0;collapsible=1;marginBottom=0;whiteSpace=wrap;html=1;" vertex="1" parent="1">
          <mxGeometry x="40" y="360" width="160" height="86" as="geometry" />
        </mxCell>
        <mxCell id="BDBOMCY-2Hl1vsMtAM6a-42" value="+ field: type" style="text;strokeColor=none;fillColor=none;align=left;verticalAlign=top;spacingLeft=4;spacingRight=4;overflow=hidden;rotatable=0;points=[[0,0.5],[1,0.5]];portConstraint=eastwest;whiteSpace=wrap;html=1;" vertex="1" parent="BDBOMCY-2Hl1vsMtAM6a-41">
          <mxGeometry y="26" width="160" height="26" as="geometry" />
        </mxCell>
        <mxCell id="BDBOMCY-2Hl1vsMtAM6a-43" value="" style="line;strokeWidth=1;fillColor=none;align=left;verticalAlign=middle;spacingTop=-1;spacingLeft=3;spacingRight=3;rotatable=0;labelPosition=right;points=[];portConstraint=eastwest;strokeColor=inherit;" vertex="1" parent="BDBOMCY-2Hl1vsMtAM6a-41">
          <mxGeometry y="52" width="160" height="8" as="geometry" />
        </mxCell>
        <mxCell id="BDBOMCY-2Hl1vsMtAM6a-44" value="+ method(type): type" style="text;strokeColor=none;fillColor=none;align=left;verticalAlign=top;spacingLeft=4;spacingRight=4;overflow=hidden;rotatable=0;points=[[0,0.5],[1,0.5]];portConstraint=eastwest;whiteSpace=wrap;html=1;" vertex="1" parent="BDBOMCY-2Hl1vsMtAM6a-41">
          <mxGeometry y="60" width="160" height="26" as="geometry" />
        </mxCell>
        <mxCell id="BDBOMCY-2Hl1vsMtAM6a-50" style="edgeStyle=orthogonalEdgeStyle;rounded=0;orthogonalLoop=1;jettySize=auto;html=1;entryX=0;entryY=0.5;entryDx=0;entryDy=0;" edge="1" parent="1" source="BDBOMCY-2Hl1vsMtAM6a-45" target="BDBOMCY-2Hl1vsMtAM6a-28">
          <mxGeometry relative="1" as="geometry">
            <Array as="points">
              <mxPoint x="830" y="645" />
              <mxPoint x="830" y="147" />
            </Array>
          </mxGeometry>
        </mxCell>
        <mxCell id="BDBOMCY-2Hl1vsMtAM6a-108" style="edgeStyle=orthogonalEdgeStyle;rounded=0;orthogonalLoop=1;jettySize=auto;html=1;entryX=1;entryY=0.25;entryDx=0;entryDy=0;" edge="1" parent="1" source="BDBOMCY-2Hl1vsMtAM6a-45" target="BDBOMCY-2Hl1vsMtAM6a-105">
          <mxGeometry relative="1" as="geometry">
            <Array as="points">
              <mxPoint x="590" y="645" />
              <mxPoint x="590" y="220" />
            </Array>
          </mxGeometry>
        </mxCell>
        <mxCell id="BDBOMCY-2Hl1vsMtAM6a-45" value="&lt;p style=&quot;margin:0px;margin-top:6px;text-align:center;&quot;&gt;&lt;b&gt;ProducerComponent&lt;/b&gt;&lt;/p&gt;&lt;hr size=&quot;1&quot; style=&quot;border-style:solid;&quot;&gt;&lt;p style=&quot;margin:0px;margin-left:8px;&quot;&gt;+ production: Map&amp;lt;Resource, Float&amp;gt;&lt;/p&gt;" style="align=left;overflow=fill;html=1;dropTarget=0;whiteSpace=wrap;" vertex="1" parent="1">
          <mxGeometry x="620" y="600" width="180" height="90" as="geometry" />
        </mxCell>
        <mxCell id="BDBOMCY-2Hl1vsMtAM6a-46" value="" style="shape=component;jettyWidth=8;jettyHeight=4;" vertex="1" parent="BDBOMCY-2Hl1vsMtAM6a-45">
          <mxGeometry x="1" width="20" height="20" relative="1" as="geometry">
            <mxPoint x="-24" y="4" as="offset" />
          </mxGeometry>
        </mxCell>
        <mxCell id="BDBOMCY-2Hl1vsMtAM6a-51" style="edgeStyle=orthogonalEdgeStyle;rounded=0;orthogonalLoop=1;jettySize=auto;html=1;entryX=0;entryY=0.5;entryDx=0;entryDy=0;" edge="1" parent="1" source="BDBOMCY-2Hl1vsMtAM6a-47" target="BDBOMCY-2Hl1vsMtAM6a-28">
          <mxGeometry relative="1" as="geometry">
            <mxPoint x="870" y="310" as="targetPoint" />
            <Array as="points">
              <mxPoint x="830" y="765" />
              <mxPoint x="830" y="147" />
            </Array>
          </mxGeometry>
        </mxCell>
        <mxCell id="BDBOMCY-2Hl1vsMtAM6a-62" style="edgeStyle=orthogonalEdgeStyle;rounded=0;orthogonalLoop=1;jettySize=auto;html=1;entryX=0;entryY=0.5;entryDx=0;entryDy=0;" edge="1" parent="1" source="BDBOMCY-2Hl1vsMtAM6a-47" target="BDBOMCY-2Hl1vsMtAM6a-36">
          <mxGeometry relative="1" as="geometry">
            <Array as="points">
              <mxPoint x="850" y="765" />
              <mxPoint x="850" y="225" />
            </Array>
          </mxGeometry>
        </mxCell>
        <mxCell id="BDBOMCY-2Hl1vsMtAM6a-109" style="edgeStyle=orthogonalEdgeStyle;rounded=0;orthogonalLoop=1;jettySize=auto;html=1;entryX=1;entryY=0.25;entryDx=0;entryDy=0;" edge="1" parent="1" source="BDBOMCY-2Hl1vsMtAM6a-47" target="BDBOMCY-2Hl1vsMtAM6a-105">
          <mxGeometry relative="1" as="geometry">
            <Array as="points">
              <mxPoint x="590" y="765" />
              <mxPoint x="590" y="220" />
            </Array>
          </mxGeometry>
        </mxCell>
        <mxCell id="BDBOMCY-2Hl1vsMtAM6a-47" value="&lt;p style=&quot;margin:0px;margin-top:6px;text-align:center;&quot;&gt;&lt;b&gt;ConsumerComponent&lt;/b&gt;&lt;/p&gt;&lt;hr size=&quot;1&quot; style=&quot;border-style:solid;&quot;&gt;&lt;p style=&quot;margin:0px;margin-left:8px;&quot;&gt;+ consumer: Map&amp;lt;Resource, Float&amp;gt;&lt;/p&gt;" style="align=left;overflow=fill;html=1;dropTarget=0;whiteSpace=wrap;" vertex="1" parent="1">
          <mxGeometry x="620" y="720" width="180" height="90" as="geometry" />
        </mxCell>
        <mxCell id="BDBOMCY-2Hl1vsMtAM6a-48" value="" style="shape=component;jettyWidth=8;jettyHeight=4;" vertex="1" parent="BDBOMCY-2Hl1vsMtAM6a-47">
          <mxGeometry x="1" width="20" height="20" relative="1" as="geometry">
            <mxPoint x="-24" y="4" as="offset" />
          </mxGeometry>
        </mxCell>
        <mxCell id="BDBOMCY-2Hl1vsMtAM6a-54" style="edgeStyle=orthogonalEdgeStyle;rounded=0;orthogonalLoop=1;jettySize=auto;html=1;entryX=0;entryY=0.5;entryDx=0;entryDy=0;" edge="1" parent="1" source="BDBOMCY-2Hl1vsMtAM6a-52" target="BDBOMCY-2Hl1vsMtAM6a-28">
          <mxGeometry relative="1" as="geometry">
            <Array as="points">
              <mxPoint x="830" y="885" />
              <mxPoint x="830" y="147" />
            </Array>
          </mxGeometry>
        </mxCell>
        <mxCell id="BDBOMCY-2Hl1vsMtAM6a-110" style="edgeStyle=orthogonalEdgeStyle;rounded=0;orthogonalLoop=1;jettySize=auto;html=1;entryX=1;entryY=0.25;entryDx=0;entryDy=0;" edge="1" parent="1" source="BDBOMCY-2Hl1vsMtAM6a-52" target="BDBOMCY-2Hl1vsMtAM6a-105">
          <mxGeometry relative="1" as="geometry">
            <Array as="points">
              <mxPoint x="590" y="890" />
              <mxPoint x="590" y="220" />
            </Array>
          </mxGeometry>
        </mxCell>
        <mxCell id="BDBOMCY-2Hl1vsMtAM6a-52" value="&lt;p style=&quot;margin:0px;margin-top:6px;text-align:center;&quot;&gt;&lt;b&gt;StorageComponent&lt;/b&gt;&lt;/p&gt;&lt;hr size=&quot;1&quot; style=&quot;border-style:solid;&quot;&gt;&lt;p style=&quot;margin:0px;margin-left:8px;&quot;&gt;+ storage: Map&amp;lt;Resource, Float&amp;gt;&lt;/p&gt;&lt;p style=&quot;margin:0px;margin-left:8px;&quot;&gt;+ maxStorage: Map&amp;lt;Resource, Float&amp;gt;&lt;/p&gt;" style="align=left;overflow=fill;html=1;dropTarget=0;whiteSpace=wrap;" vertex="1" parent="1">
          <mxGeometry x="620" y="840" width="180" height="100" as="geometry" />
        </mxCell>
        <mxCell id="BDBOMCY-2Hl1vsMtAM6a-53" value="" style="shape=component;jettyWidth=8;jettyHeight=4;" vertex="1" parent="BDBOMCY-2Hl1vsMtAM6a-52">
          <mxGeometry x="1" width="20" height="20" relative="1" as="geometry">
            <mxPoint x="-24" y="4" as="offset" />
          </mxGeometry>
        </mxCell>
        <mxCell id="BDBOMCY-2Hl1vsMtAM6a-57" style="edgeStyle=orthogonalEdgeStyle;rounded=0;orthogonalLoop=1;jettySize=auto;html=1;entryX=0;entryY=0.5;entryDx=0;entryDy=0;" edge="1" parent="1" source="BDBOMCY-2Hl1vsMtAM6a-55" target="BDBOMCY-2Hl1vsMtAM6a-28">
          <mxGeometry relative="1" as="geometry">
            <Array as="points">
              <mxPoint x="830" y="1005" />
              <mxPoint x="830" y="147" />
            </Array>
          </mxGeometry>
        </mxCell>
        <mxCell id="BDBOMCY-2Hl1vsMtAM6a-129" style="edgeStyle=orthogonalEdgeStyle;rounded=0;orthogonalLoop=1;jettySize=auto;html=1;entryX=1;entryY=0.25;entryDx=0;entryDy=0;" edge="1" parent="1" source="BDBOMCY-2Hl1vsMtAM6a-55" target="BDBOMCY-2Hl1vsMtAM6a-126">
          <mxGeometry relative="1" as="geometry">
            <Array as="points">
              <mxPoint x="560" y="1005" />
              <mxPoint x="560" y="531" />
            </Array>
          </mxGeometry>
        </mxCell>
        <mxCell id="BDBOMCY-2Hl1vsMtAM6a-55" value="&lt;p style=&quot;margin:0px;margin-top:6px;text-align:center;&quot;&gt;&lt;b&gt;ConstructionComponent&lt;/b&gt;&lt;/p&gt;&lt;hr size=&quot;1&quot; style=&quot;border-style:solid;&quot;&gt;&lt;p style=&quot;margin:0px;margin-left:8px;&quot;&gt;+ turns: int&lt;/p&gt;" style="align=left;overflow=fill;html=1;dropTarget=0;whiteSpace=wrap;" vertex="1" parent="1">
          <mxGeometry x="620" y="960" width="180" height="90" as="geometry" />
        </mxCell>
        <mxCell id="BDBOMCY-2Hl1vsMtAM6a-56" value="" style="shape=component;jettyWidth=8;jettyHeight=4;" vertex="1" parent="BDBOMCY-2Hl1vsMtAM6a-55">
          <mxGeometry x="1" width="20" height="20" relative="1" as="geometry">
            <mxPoint x="-24" y="4" as="offset" />
          </mxGeometry>
        </mxCell>
        <mxCell id="BDBOMCY-2Hl1vsMtAM6a-60" style="edgeStyle=orthogonalEdgeStyle;rounded=0;orthogonalLoop=1;jettySize=auto;html=1;entryX=0;entryY=0.5;entryDx=0;entryDy=0;exitX=1;exitY=0.5;exitDx=0;exitDy=0;" edge="1" parent="1" source="BDBOMCY-2Hl1vsMtAM6a-63" target="BDBOMCY-2Hl1vsMtAM6a-28">
          <mxGeometry relative="1" as="geometry">
            <mxPoint x="800" y="1125" as="sourcePoint" />
            <Array as="points">
              <mxPoint x="830" y="1125" />
              <mxPoint x="830" y="147" />
            </Array>
          </mxGeometry>
        </mxCell>
        <mxCell id="BDBOMCY-2Hl1vsMtAM6a-114" style="edgeStyle=orthogonalEdgeStyle;rounded=0;orthogonalLoop=1;jettySize=auto;html=1;entryX=1;entryY=0.25;entryDx=0;entryDy=0;" edge="1" parent="1" source="BDBOMCY-2Hl1vsMtAM6a-63" target="BDBOMCY-2Hl1vsMtAM6a-111">
          <mxGeometry relative="1" as="geometry">
            <Array as="points">
              <mxPoint x="580" y="1125" />
              <mxPoint x="580" y="339" />
            </Array>
          </mxGeometry>
        </mxCell>
        <mxCell id="BDBOMCY-2Hl1vsMtAM6a-63" value="&lt;p style=&quot;margin:0px;margin-top:6px;text-align:center;&quot;&gt;&lt;b&gt;HealthComponent&lt;/b&gt;&lt;/p&gt;&lt;hr size=&quot;1&quot; style=&quot;border-style:solid;&quot;&gt;&lt;p style=&quot;margin:0px;margin-left:8px;&quot;&gt;+ health: float&lt;/p&gt;&lt;p style=&quot;margin:0px;margin-left:8px;&quot;&gt;+ maxHealth: float&lt;/p&gt;" style="align=left;overflow=fill;html=1;dropTarget=0;whiteSpace=wrap;" vertex="1" parent="1">
          <mxGeometry x="620" y="1080" width="180" height="90" as="geometry" />
        </mxCell>
        <mxCell id="BDBOMCY-2Hl1vsMtAM6a-64" value="" style="shape=component;jettyWidth=8;jettyHeight=4;" vertex="1" parent="BDBOMCY-2Hl1vsMtAM6a-63">
          <mxGeometry x="1" width="20" height="20" relative="1" as="geometry">
            <mxPoint x="-24" y="4" as="offset" />
          </mxGeometry>
        </mxCell>
        <mxCell id="BDBOMCY-2Hl1vsMtAM6a-67" style="edgeStyle=orthogonalEdgeStyle;rounded=0;orthogonalLoop=1;jettySize=auto;html=1;entryX=0;entryY=0.5;entryDx=0;entryDy=0;" edge="1" parent="1" source="BDBOMCY-2Hl1vsMtAM6a-65" target="BDBOMCY-2Hl1vsMtAM6a-36">
          <mxGeometry relative="1" as="geometry">
            <Array as="points">
              <mxPoint x="850" y="1245" />
              <mxPoint x="850" y="225" />
            </Array>
          </mxGeometry>
        </mxCell>
        <mxCell id="BDBOMCY-2Hl1vsMtAM6a-128" style="edgeStyle=orthogonalEdgeStyle;rounded=0;orthogonalLoop=1;jettySize=auto;html=1;entryX=1;entryY=0.25;entryDx=0;entryDy=0;" edge="1" parent="1" source="BDBOMCY-2Hl1vsMtAM6a-65" target="BDBOMCY-2Hl1vsMtAM6a-126">
          <mxGeometry relative="1" as="geometry">
            <Array as="points">
              <mxPoint x="560" y="1245" />
              <mxPoint x="560" y="531" />
            </Array>
          </mxGeometry>
        </mxCell>
        <mxCell id="BDBOMCY-2Hl1vsMtAM6a-65" value="&lt;p style=&quot;margin:0px;margin-top:6px;text-align:center;&quot;&gt;&lt;b&gt;MovementComponent&lt;/b&gt;&lt;/p&gt;&lt;hr size=&quot;1&quot; style=&quot;border-style:solid;&quot;&gt;&lt;p style=&quot;margin:0px;margin-left:8px;&quot;&gt;+ movesPerTurn: float&lt;/p&gt;&lt;p style=&quot;margin:0px;margin-left:8px;&quot;&gt;+ movesRemaining: float&lt;/p&gt;" style="align=left;overflow=fill;html=1;dropTarget=0;whiteSpace=wrap;" vertex="1" parent="1">
          <mxGeometry x="620" y="1200" width="180" height="90" as="geometry" />
        </mxCell>
        <mxCell id="BDBOMCY-2Hl1vsMtAM6a-66" value="" style="shape=component;jettyWidth=8;jettyHeight=4;" vertex="1" parent="BDBOMCY-2Hl1vsMtAM6a-65">
          <mxGeometry x="1" width="20" height="20" relative="1" as="geometry">
            <mxPoint x="-24" y="4" as="offset" />
          </mxGeometry>
        </mxCell>
        <mxCell id="BDBOMCY-2Hl1vsMtAM6a-70" style="edgeStyle=orthogonalEdgeStyle;rounded=0;orthogonalLoop=1;jettySize=auto;html=1;entryX=0;entryY=0.5;entryDx=0;entryDy=0;" edge="1" parent="1" source="BDBOMCY-2Hl1vsMtAM6a-68" target="BDBOMCY-2Hl1vsMtAM6a-28">
          <mxGeometry relative="1" as="geometry">
            <Array as="points">
              <mxPoint x="830" y="1365" />
              <mxPoint x="830" y="147" />
            </Array>
          </mxGeometry>
        </mxCell>
        <mxCell id="BDBOMCY-2Hl1vsMtAM6a-71" style="edgeStyle=orthogonalEdgeStyle;rounded=0;orthogonalLoop=1;jettySize=auto;html=1;entryX=0;entryY=0.5;entryDx=0;entryDy=0;" edge="1" parent="1" source="BDBOMCY-2Hl1vsMtAM6a-68" target="BDBOMCY-2Hl1vsMtAM6a-36">
          <mxGeometry relative="1" as="geometry">
            <Array as="points">
              <mxPoint x="850" y="1365" />
              <mxPoint x="850" y="225" />
            </Array>
          </mxGeometry>
        </mxCell>
        <mxCell id="BDBOMCY-2Hl1vsMtAM6a-124" style="edgeStyle=orthogonalEdgeStyle;rounded=0;orthogonalLoop=1;jettySize=auto;html=1;entryX=1;entryY=0.25;entryDx=0;entryDy=0;" edge="1" parent="1" source="BDBOMCY-2Hl1vsMtAM6a-68" target="BDBOMCY-2Hl1vsMtAM6a-118">
          <mxGeometry relative="1" as="geometry">
            <Array as="points">
              <mxPoint x="570" y="1365" />
              <mxPoint x="570" y="453" />
            </Array>
          </mxGeometry>
        </mxCell>
        <mxCell id="BDBOMCY-2Hl1vsMtAM6a-68" value="&lt;p style=&quot;margin:0px;margin-top:6px;text-align:center;&quot;&gt;&lt;b&gt;ResearchRequirementComponent&lt;/b&gt;&lt;/p&gt;&lt;hr size=&quot;1&quot; style=&quot;border-style:solid;&quot;&gt;&lt;p style=&quot;margin:0px;margin-left:8px;&quot;&gt;+ technologiesRequired: Set&amp;lt;Technology&amp;gt;&lt;br&gt;&lt;/p&gt;" style="align=left;overflow=fill;html=1;dropTarget=0;whiteSpace=wrap;" vertex="1" parent="1">
          <mxGeometry x="600" y="1320" width="200" height="90" as="geometry" />
        </mxCell>
        <mxCell id="BDBOMCY-2Hl1vsMtAM6a-69" value="" style="shape=component;jettyWidth=8;jettyHeight=4;" vertex="1" parent="BDBOMCY-2Hl1vsMtAM6a-68">
          <mxGeometry x="1" width="20" height="20" relative="1" as="geometry">
            <mxPoint x="-24" y="4" as="offset" />
          </mxGeometry>
        </mxCell>
        <mxCell id="BDBOMCY-2Hl1vsMtAM6a-76" style="edgeStyle=orthogonalEdgeStyle;rounded=0;orthogonalLoop=1;jettySize=auto;html=1;entryX=0;entryY=0.5;entryDx=0;entryDy=0;" edge="1" parent="1" source="BDBOMCY-2Hl1vsMtAM6a-72" target="BDBOMCY-2Hl1vsMtAM6a-28">
          <mxGeometry relative="1" as="geometry">
            <Array as="points">
              <mxPoint x="830" y="1485" />
              <mxPoint x="830" y="147" />
            </Array>
          </mxGeometry>
        </mxCell>
        <mxCell id="BDBOMCY-2Hl1vsMtAM6a-72" value="&lt;p style=&quot;margin:0px;margin-top:6px;text-align:center;&quot;&gt;&lt;b&gt;SelectedRecipeComponent&lt;/b&gt;&lt;/p&gt;&lt;hr size=&quot;1&quot; style=&quot;border-style:solid;&quot;&gt;&lt;p style=&quot;margin:0px;margin-left:8px;&quot;&gt;+ recipe: Recipe&lt;/p&gt;" style="align=left;overflow=fill;html=1;dropTarget=0;whiteSpace=wrap;" vertex="1" parent="1">
          <mxGeometry x="600" y="1440" width="200" height="90" as="geometry" />
        </mxCell>
        <mxCell id="BDBOMCY-2Hl1vsMtAM6a-73" value="" style="shape=component;jettyWidth=8;jettyHeight=4;" vertex="1" parent="BDBOMCY-2Hl1vsMtAM6a-72">
          <mxGeometry x="1" width="20" height="20" relative="1" as="geometry">
            <mxPoint x="-24" y="4" as="offset" />
          </mxGeometry>
        </mxCell>
        <mxCell id="BDBOMCY-2Hl1vsMtAM6a-77" style="edgeStyle=orthogonalEdgeStyle;rounded=0;orthogonalLoop=1;jettySize=auto;html=1;entryX=0;entryY=0.5;entryDx=0;entryDy=0;" edge="1" parent="1" source="BDBOMCY-2Hl1vsMtAM6a-74" target="BDBOMCY-2Hl1vsMtAM6a-28">
          <mxGeometry relative="1" as="geometry">
            <Array as="points">
              <mxPoint x="830" y="1605" />
              <mxPoint x="830" y="147" />
            </Array>
          </mxGeometry>
        </mxCell>
        <mxCell id="BDBOMCY-2Hl1vsMtAM6a-74" value="&lt;p style=&quot;margin:0px;margin-top:6px;text-align:center;&quot;&gt;&lt;b&gt;AvailableRecipesComponent&lt;/b&gt;&lt;/p&gt;&lt;hr size=&quot;1&quot; style=&quot;border-style:solid;&quot;&gt;&lt;p style=&quot;margin:0px;margin-left:8px;&quot;&gt;+ availableRecipes: Set&amp;lt;Recipe&amp;gt;&lt;/p&gt;" style="align=left;overflow=fill;html=1;dropTarget=0;whiteSpace=wrap;" vertex="1" parent="1">
          <mxGeometry x="600" y="1560" width="200" height="90" as="geometry" />
        </mxCell>
        <mxCell id="BDBOMCY-2Hl1vsMtAM6a-75" value="" style="shape=component;jettyWidth=8;jettyHeight=4;" vertex="1" parent="BDBOMCY-2Hl1vsMtAM6a-74">
          <mxGeometry x="1" width="20" height="20" relative="1" as="geometry">
            <mxPoint x="-24" y="4" as="offset" />
          </mxGeometry>
        </mxCell>
        <mxCell id="BDBOMCY-2Hl1vsMtAM6a-80" style="edgeStyle=orthogonalEdgeStyle;rounded=0;orthogonalLoop=1;jettySize=auto;html=1;entryX=0;entryY=0.5;entryDx=0;entryDy=0;" edge="1" parent="1" source="BDBOMCY-2Hl1vsMtAM6a-78" target="BDBOMCY-2Hl1vsMtAM6a-36">
          <mxGeometry relative="1" as="geometry">
            <Array as="points">
              <mxPoint x="850" y="1725" />
              <mxPoint x="850" y="225" />
            </Array>
          </mxGeometry>
        </mxCell>
        <mxCell id="BDBOMCY-2Hl1vsMtAM6a-78" value="&lt;p style=&quot;margin:0px;margin-top:6px;text-align:center;&quot;&gt;&lt;b&gt;UnitComponent&lt;/b&gt;&lt;/p&gt;&lt;hr size=&quot;1&quot; style=&quot;border-style:solid;&quot;&gt;&lt;p style=&quot;margin:0px;margin-left:8px;&quot;&gt;+ unitType: UnitType&lt;/p&gt;&lt;p style=&quot;margin:0px;margin-left:8px;&quot;&gt;+ equipmentSlots: int&lt;/p&gt;" style="align=left;overflow=fill;html=1;dropTarget=0;whiteSpace=wrap;" vertex="1" parent="1">
          <mxGeometry x="620" y="1680" width="180" height="90" as="geometry" />
        </mxCell>
        <mxCell id="BDBOMCY-2Hl1vsMtAM6a-79" value="" style="shape=component;jettyWidth=8;jettyHeight=4;" vertex="1" parent="BDBOMCY-2Hl1vsMtAM6a-78">
          <mxGeometry x="1" width="20" height="20" relative="1" as="geometry">
            <mxPoint x="-24" y="4" as="offset" />
          </mxGeometry>
        </mxCell>
        <mxCell id="BDBOMCY-2Hl1vsMtAM6a-83" style="edgeStyle=orthogonalEdgeStyle;rounded=0;orthogonalLoop=1;jettySize=auto;html=1;entryX=0;entryY=0.5;entryDx=0;entryDy=0;" edge="1" parent="1" source="BDBOMCY-2Hl1vsMtAM6a-81" target="BDBOMCY-2Hl1vsMtAM6a-36">
          <mxGeometry relative="1" as="geometry">
            <Array as="points">
              <mxPoint x="830" y="1845" />
              <mxPoint x="830" y="225" />
            </Array>
          </mxGeometry>
        </mxCell>
        <mxCell id="BDBOMCY-2Hl1vsMtAM6a-84" style="edgeStyle=orthogonalEdgeStyle;rounded=0;orthogonalLoop=1;jettySize=auto;html=1;entryX=0;entryY=0.5;entryDx=0;entryDy=0;" edge="1" parent="1" source="BDBOMCY-2Hl1vsMtAM6a-81" target="BDBOMCY-2Hl1vsMtAM6a-36">
          <mxGeometry relative="1" as="geometry">
            <Array as="points">
              <mxPoint x="850" y="1845" />
              <mxPoint x="850" y="225" />
            </Array>
          </mxGeometry>
        </mxCell>
        <mxCell id="BDBOMCY-2Hl1vsMtAM6a-115" style="edgeStyle=orthogonalEdgeStyle;rounded=0;orthogonalLoop=1;jettySize=auto;html=1;entryX=1;entryY=0.25;entryDx=0;entryDy=0;" edge="1" parent="1" source="BDBOMCY-2Hl1vsMtAM6a-81" target="BDBOMCY-2Hl1vsMtAM6a-111">
          <mxGeometry relative="1" as="geometry">
            <Array as="points">
              <mxPoint x="580" y="1845" />
              <mxPoint x="580" y="339" />
            </Array>
          </mxGeometry>
        </mxCell>
        <mxCell id="BDBOMCY-2Hl1vsMtAM6a-81" value="&lt;p style=&quot;margin:0px;margin-top:6px;text-align:center;&quot;&gt;&lt;b&gt;AttackComponent&lt;/b&gt;&lt;/p&gt;&lt;hr size=&quot;1&quot; style=&quot;border-style:solid;&quot;&gt;&lt;p style=&quot;margin:0px;margin-left:8px;&quot;&gt;+ baseAttack: float&lt;/p&gt;&lt;p style=&quot;margin:0px;margin-left:8px;&quot;&gt;+ baseType: AttackType&lt;/p&gt;" style="align=left;overflow=fill;html=1;dropTarget=0;whiteSpace=wrap;" vertex="1" parent="1">
          <mxGeometry x="620" y="1800" width="180" height="90" as="geometry" />
        </mxCell>
        <mxCell id="BDBOMCY-2Hl1vsMtAM6a-82" value="" style="shape=component;jettyWidth=8;jettyHeight=4;" vertex="1" parent="BDBOMCY-2Hl1vsMtAM6a-81">
          <mxGeometry x="1" width="20" height="20" relative="1" as="geometry">
            <mxPoint x="-24" y="4" as="offset" />
          </mxGeometry>
        </mxCell>
        <mxCell id="BDBOMCY-2Hl1vsMtAM6a-87" style="edgeStyle=orthogonalEdgeStyle;rounded=0;orthogonalLoop=1;jettySize=auto;html=1;entryX=0;entryY=0.5;entryDx=0;entryDy=0;" edge="1" parent="1" source="BDBOMCY-2Hl1vsMtAM6a-85" target="BDBOMCY-2Hl1vsMtAM6a-36">
          <mxGeometry relative="1" as="geometry">
            <Array as="points">
              <mxPoint x="850" y="1965" />
              <mxPoint x="850" y="225" />
            </Array>
          </mxGeometry>
        </mxCell>
        <mxCell id="BDBOMCY-2Hl1vsMtAM6a-130" style="edgeStyle=orthogonalEdgeStyle;rounded=0;orthogonalLoop=1;jettySize=auto;html=1;entryX=1;entryY=0.25;entryDx=0;entryDy=0;" edge="1" parent="1" source="BDBOMCY-2Hl1vsMtAM6a-85" target="BDBOMCY-2Hl1vsMtAM6a-111">
          <mxGeometry relative="1" as="geometry">
            <Array as="points">
              <mxPoint x="580" y="1965" />
              <mxPoint x="580" y="340" />
            </Array>
          </mxGeometry>
        </mxCell>
        <mxCell id="BDBOMCY-2Hl1vsMtAM6a-85" value="&lt;p style=&quot;margin:0px;margin-top:6px;text-align:center;&quot;&gt;&lt;b&gt;EquipmentComponent&lt;/b&gt;&lt;/p&gt;&lt;hr size=&quot;1&quot; style=&quot;border-style:solid;&quot;&gt;&lt;p style=&quot;margin:0px;margin-left:8px;&quot;&gt;+ equipment: Equipment&lt;/p&gt;" style="align=left;overflow=fill;html=1;dropTarget=0;whiteSpace=wrap;" vertex="1" parent="1">
          <mxGeometry x="620" y="1920" width="180" height="90" as="geometry" />
        </mxCell>
        <mxCell id="BDBOMCY-2Hl1vsMtAM6a-86" value="" style="shape=component;jettyWidth=8;jettyHeight=4;" vertex="1" parent="BDBOMCY-2Hl1vsMtAM6a-85">
          <mxGeometry x="1" width="20" height="20" relative="1" as="geometry">
            <mxPoint x="-24" y="4" as="offset" />
          </mxGeometry>
        </mxCell>
        <mxCell id="BDBOMCY-2Hl1vsMtAM6a-90" style="edgeStyle=orthogonalEdgeStyle;rounded=0;orthogonalLoop=1;jettySize=auto;html=1;entryX=0;entryY=0.5;entryDx=0;entryDy=0;" edge="1" parent="1" source="BDBOMCY-2Hl1vsMtAM6a-88" target="BDBOMCY-2Hl1vsMtAM6a-28">
          <mxGeometry relative="1" as="geometry">
            <Array as="points">
              <mxPoint x="830" y="2085" />
              <mxPoint x="830" y="147" />
            </Array>
          </mxGeometry>
        </mxCell>
        <mxCell id="BDBOMCY-2Hl1vsMtAM6a-91" style="edgeStyle=orthogonalEdgeStyle;rounded=0;orthogonalLoop=1;jettySize=auto;html=1;entryX=0;entryY=0.5;entryDx=0;entryDy=0;" edge="1" parent="1" source="BDBOMCY-2Hl1vsMtAM6a-88" target="BDBOMCY-2Hl1vsMtAM6a-36">
          <mxGeometry relative="1" as="geometry">
            <Array as="points">
              <mxPoint x="850" y="2085" />
              <mxPoint x="850" y="225" />
            </Array>
          </mxGeometry>
        </mxCell>
        <mxCell id="BDBOMCY-2Hl1vsMtAM6a-117" style="edgeStyle=orthogonalEdgeStyle;rounded=0;orthogonalLoop=1;jettySize=auto;html=1;entryX=1;entryY=0.25;entryDx=0;entryDy=0;" edge="1" parent="1" source="BDBOMCY-2Hl1vsMtAM6a-88" target="BDBOMCY-2Hl1vsMtAM6a-111">
          <mxGeometry relative="1" as="geometry">
            <Array as="points">
              <mxPoint x="580" y="2085" />
              <mxPoint x="580" y="340" />
            </Array>
          </mxGeometry>
        </mxCell>
        <mxCell id="BDBOMCY-2Hl1vsMtAM6a-88" value="&lt;p style=&quot;margin:0px;margin-top:6px;text-align:center;&quot;&gt;&lt;b&gt;DefenseComponent&lt;/b&gt;&lt;/p&gt;&lt;hr size=&quot;1&quot; style=&quot;border-style:solid;&quot;&gt;&lt;p style=&quot;margin:0px;margin-left:8px;&quot;&gt;+ baseDefense: float&lt;/p&gt;&lt;p style=&quot;margin:0px;margin-left:8px;&quot;&gt;+ typeMultipliers: Map&amp;lt;AttackType, Float&amp;gt;&lt;/p&gt;" style="align=left;overflow=fill;html=1;dropTarget=0;whiteSpace=wrap;" vertex="1" parent="1">
          <mxGeometry x="620" y="2040" width="180" height="90" as="geometry" />
        </mxCell>
        <mxCell id="BDBOMCY-2Hl1vsMtAM6a-89" value="" style="shape=component;jettyWidth=8;jettyHeight=4;" vertex="1" parent="BDBOMCY-2Hl1vsMtAM6a-88">
          <mxGeometry x="1" width="20" height="20" relative="1" as="geometry">
            <mxPoint x="-24" y="4" as="offset" />
          </mxGeometry>
        </mxCell>
        <mxCell id="BDBOMCY-2Hl1vsMtAM6a-94" style="edgeStyle=orthogonalEdgeStyle;rounded=0;orthogonalLoop=1;jettySize=auto;html=1;entryX=0;entryY=0.5;entryDx=0;entryDy=0;" edge="1" parent="1" source="BDBOMCY-2Hl1vsMtAM6a-92" target="BDBOMCY-2Hl1vsMtAM6a-28">
          <mxGeometry relative="1" as="geometry">
            <Array as="points">
              <mxPoint x="830" y="2205" />
              <mxPoint x="830" y="147" />
            </Array>
          </mxGeometry>
        </mxCell>
        <mxCell id="BDBOMCY-2Hl1vsMtAM6a-95" style="edgeStyle=orthogonalEdgeStyle;rounded=0;orthogonalLoop=1;jettySize=auto;html=1;entryX=0;entryY=0.5;entryDx=0;entryDy=0;" edge="1" parent="1" source="BDBOMCY-2Hl1vsMtAM6a-92" target="BDBOMCY-2Hl1vsMtAM6a-36">
          <mxGeometry relative="1" as="geometry">
            <Array as="points">
              <mxPoint x="850" y="2205" />
              <mxPoint x="850" y="225" />
            </Array>
          </mxGeometry>
        </mxCell>
        <mxCell id="BDBOMCY-2Hl1vsMtAM6a-92" value="&lt;p style=&quot;margin:0px;margin-top:6px;text-align:center;&quot;&gt;&lt;b&gt;StatusEffectComponent&lt;/b&gt;&lt;/p&gt;&lt;hr size=&quot;1&quot; style=&quot;border-style:solid;&quot;&gt;&lt;p style=&quot;margin:0px;margin-left:8px;&quot;&gt;TODO&lt;/p&gt;" style="align=left;overflow=fill;html=1;dropTarget=0;whiteSpace=wrap;" vertex="1" parent="1">
          <mxGeometry x="620" y="2160" width="180" height="90" as="geometry" />
        </mxCell>
        <mxCell id="BDBOMCY-2Hl1vsMtAM6a-93" value="" style="shape=component;jettyWidth=8;jettyHeight=4;" vertex="1" parent="BDBOMCY-2Hl1vsMtAM6a-92">
          <mxGeometry x="1" width="20" height="20" relative="1" as="geometry">
            <mxPoint x="-24" y="4" as="offset" />
          </mxGeometry>
        </mxCell>
        <mxCell id="BDBOMCY-2Hl1vsMtAM6a-98" style="edgeStyle=orthogonalEdgeStyle;rounded=0;orthogonalLoop=1;jettySize=auto;html=1;entryX=0;entryY=0.5;entryDx=0;entryDy=0;" edge="1" parent="1" source="BDBOMCY-2Hl1vsMtAM6a-96" target="BDBOMCY-2Hl1vsMtAM6a-28">
          <mxGeometry relative="1" as="geometry">
            <Array as="points">
              <mxPoint x="830" y="45" />
              <mxPoint x="830" y="147" />
            </Array>
          </mxGeometry>
        </mxCell>
        <mxCell id="BDBOMCY-2Hl1vsMtAM6a-99" style="edgeStyle=orthogonalEdgeStyle;rounded=0;orthogonalLoop=1;jettySize=auto;html=1;entryX=0;entryY=0.5;entryDx=0;entryDy=0;" edge="1" parent="1" source="BDBOMCY-2Hl1vsMtAM6a-96" target="BDBOMCY-2Hl1vsMtAM6a-36">
          <mxGeometry relative="1" as="geometry">
            <Array as="points">
              <mxPoint x="830" y="45" />
              <mxPoint x="830" y="225" />
            </Array>
          </mxGeometry>
        </mxCell>
        <mxCell id="BDBOMCY-2Hl1vsMtAM6a-96" value="&lt;p style=&quot;margin:0px;margin-top:6px;text-align:center;&quot;&gt;&lt;b&gt;HoverInfoComponent&lt;/b&gt;&lt;/p&gt;&lt;hr size=&quot;1&quot; style=&quot;border-style:solid;&quot;&gt;&lt;p style=&quot;margin:0px;margin-left:8px;&quot;&gt;+ description: String&lt;/p&gt;" style="align=left;overflow=fill;html=1;dropTarget=0;whiteSpace=wrap;" vertex="1" parent="1">
          <mxGeometry x="620" width="180" height="90" as="geometry" />
        </mxCell>
        <mxCell id="BDBOMCY-2Hl1vsMtAM6a-97" value="" style="shape=component;jettyWidth=8;jettyHeight=4;" vertex="1" parent="BDBOMCY-2Hl1vsMtAM6a-96">
          <mxGeometry x="1" width="20" height="20" relative="1" as="geometry">
            <mxPoint x="-24" y="4" as="offset" />
          </mxGeometry>
        </mxCell>
        <mxCell id="BDBOMCY-2Hl1vsMtAM6a-102" style="edgeStyle=orthogonalEdgeStyle;rounded=0;orthogonalLoop=1;jettySize=auto;html=1;entryX=0;entryY=0.5;entryDx=0;entryDy=0;" edge="1" parent="1" source="BDBOMCY-2Hl1vsMtAM6a-100" target="BDBOMCY-2Hl1vsMtAM6a-28">
          <mxGeometry relative="1" as="geometry">
            <Array as="points">
              <mxPoint x="830" y="-75" />
              <mxPoint x="830" y="147" />
            </Array>
          </mxGeometry>
        </mxCell>
        <mxCell id="BDBOMCY-2Hl1vsMtAM6a-103" style="edgeStyle=orthogonalEdgeStyle;rounded=0;orthogonalLoop=1;jettySize=auto;html=1;entryX=0;entryY=0.5;entryDx=0;entryDy=0;" edge="1" parent="1" source="BDBOMCY-2Hl1vsMtAM6a-100" target="BDBOMCY-2Hl1vsMtAM6a-36">
          <mxGeometry relative="1" as="geometry">
            <Array as="points">
              <mxPoint x="850" y="-75" />
              <mxPoint x="850" y="225" />
            </Array>
          </mxGeometry>
        </mxCell>
        <mxCell id="BDBOMCY-2Hl1vsMtAM6a-100" value="&lt;p style=&quot;margin:0px;margin-top:6px;text-align:center;&quot;&gt;&lt;b&gt;LabelComponent&lt;/b&gt;&lt;/p&gt;&lt;hr size=&quot;1&quot; style=&quot;border-style:solid;&quot;&gt;&lt;p style=&quot;margin:0px;margin-left:8px;&quot;&gt;+ name: String&lt;/p&gt;" style="align=left;overflow=fill;html=1;dropTarget=0;whiteSpace=wrap;" vertex="1" parent="1">
          <mxGeometry x="620" y="-120" width="180" height="90" as="geometry" />
        </mxCell>
        <mxCell id="BDBOMCY-2Hl1vsMtAM6a-101" value="" style="shape=component;jettyWidth=8;jettyHeight=4;" vertex="1" parent="BDBOMCY-2Hl1vsMtAM6a-100">
          <mxGeometry x="1" width="20" height="20" relative="1" as="geometry">
            <mxPoint x="-24" y="4" as="offset" />
          </mxGeometry>
        </mxCell>
        <mxCell id="BDBOMCY-2Hl1vsMtAM6a-105" value="ResourceSystem" style="swimlane;fontStyle=0;childLayout=stackLayout;horizontal=1;startSize=26;fillColor=none;horizontalStack=0;resizeParent=1;resizeParentMax=0;resizeLast=0;collapsible=1;marginBottom=0;whiteSpace=wrap;html=1;" vertex="1" parent="1">
          <mxGeometry x="340" y="200" width="140" height="78" as="geometry" />
        </mxCell>
        <mxCell id="BDBOMCY-2Hl1vsMtAM6a-106" value="+ processTurn()" style="text;strokeColor=none;fillColor=none;align=left;verticalAlign=top;spacingLeft=4;spacingRight=4;overflow=hidden;rotatable=0;points=[[0,0.5],[1,0.5]];portConstraint=eastwest;whiteSpace=wrap;html=1;" vertex="1" parent="BDBOMCY-2Hl1vsMtAM6a-105">
          <mxGeometry y="26" width="140" height="26" as="geometry" />
        </mxCell>
        <mxCell id="BDBOMCY-2Hl1vsMtAM6a-107" value="+ calculateTurn()" style="text;strokeColor=none;fillColor=none;align=left;verticalAlign=top;spacingLeft=4;spacingRight=4;overflow=hidden;rotatable=0;points=[[0,0.5],[1,0.5]];portConstraint=eastwest;whiteSpace=wrap;html=1;" vertex="1" parent="BDBOMCY-2Hl1vsMtAM6a-105">
          <mxGeometry y="52" width="140" height="26" as="geometry" />
        </mxCell>
        <mxCell id="BDBOMCY-2Hl1vsMtAM6a-111" value="CombatSystem" style="swimlane;fontStyle=0;childLayout=stackLayout;horizontal=1;startSize=26;fillColor=none;horizontalStack=0;resizeParent=1;resizeParentMax=0;resizeLast=0;collapsible=1;marginBottom=0;whiteSpace=wrap;html=1;" vertex="1" parent="1">
          <mxGeometry x="340" y="320" width="140" height="78" as="geometry" />
        </mxCell>
        <mxCell id="BDBOMCY-2Hl1vsMtAM6a-112" value="+ processTurn()" style="text;strokeColor=none;fillColor=none;align=left;verticalAlign=top;spacingLeft=4;spacingRight=4;overflow=hidden;rotatable=0;points=[[0,0.5],[1,0.5]];portConstraint=eastwest;whiteSpace=wrap;html=1;" vertex="1" parent="BDBOMCY-2Hl1vsMtAM6a-111">
          <mxGeometry y="26" width="140" height="26" as="geometry" />
        </mxCell>
        <mxCell id="BDBOMCY-2Hl1vsMtAM6a-113" value="+ calculateTurn()" style="text;strokeColor=none;fillColor=none;align=left;verticalAlign=top;spacingLeft=4;spacingRight=4;overflow=hidden;rotatable=0;points=[[0,0.5],[1,0.5]];portConstraint=eastwest;whiteSpace=wrap;html=1;" vertex="1" parent="BDBOMCY-2Hl1vsMtAM6a-111">
          <mxGeometry y="52" width="140" height="26" as="geometry" />
        </mxCell>
        <mxCell id="BDBOMCY-2Hl1vsMtAM6a-118" value="ResearchSystem" style="swimlane;fontStyle=0;childLayout=stackLayout;horizontal=1;startSize=26;fillColor=none;horizontalStack=0;resizeParent=1;resizeParentMax=0;resizeLast=0;collapsible=1;marginBottom=0;whiteSpace=wrap;html=1;" vertex="1" parent="1">
          <mxGeometry x="340" y="440" width="140" height="52" as="geometry" />
        </mxCell>
        <mxCell id="BDBOMCY-2Hl1vsMtAM6a-119" value="+ processTurn()" style="text;strokeColor=none;fillColor=none;align=left;verticalAlign=top;spacingLeft=4;spacingRight=4;overflow=hidden;rotatable=0;points=[[0,0.5],[1,0.5]];portConstraint=eastwest;whiteSpace=wrap;html=1;" vertex="1" parent="BDBOMCY-2Hl1vsMtAM6a-118">
          <mxGeometry y="26" width="140" height="26" as="geometry" />
        </mxCell>
        <mxCell id="BDBOMCY-2Hl1vsMtAM6a-123" style="edgeStyle=orthogonalEdgeStyle;rounded=0;orthogonalLoop=1;jettySize=auto;html=1;entryX=0;entryY=0.5;entryDx=0;entryDy=0;" edge="1" parent="1" source="BDBOMCY-2Hl1vsMtAM6a-121" target="BDBOMCY-2Hl1vsMtAM6a-28">
          <mxGeometry relative="1" as="geometry">
            <Array as="points">
              <mxPoint x="830" y="2325" />
              <mxPoint x="830" y="147" />
            </Array>
          </mxGeometry>
        </mxCell>
        <mxCell id="BDBOMCY-2Hl1vsMtAM6a-125" style="edgeStyle=orthogonalEdgeStyle;rounded=0;orthogonalLoop=1;jettySize=auto;html=1;entryX=1;entryY=0.25;entryDx=0;entryDy=0;" edge="1" parent="1" source="BDBOMCY-2Hl1vsMtAM6a-121" target="BDBOMCY-2Hl1vsMtAM6a-118">
          <mxGeometry relative="1" as="geometry">
            <Array as="points">
              <mxPoint x="570" y="2325" />
              <mxPoint x="570" y="453" />
            </Array>
          </mxGeometry>
        </mxCell>
        <mxCell id="BDBOMCY-2Hl1vsMtAM6a-121" value="&lt;p style=&quot;margin:0px;margin-top:6px;text-align:center;&quot;&gt;&lt;b&gt;ScienceComponent&lt;/b&gt;&lt;/p&gt;&lt;hr size=&quot;1&quot; style=&quot;border-style:solid;&quot;&gt;&lt;p style=&quot;margin:0px;margin-left:8px;&quot;&gt;+ sciencePerTurn: float&lt;/p&gt;" style="align=left;overflow=fill;html=1;dropTarget=0;whiteSpace=wrap;" vertex="1" parent="1">
          <mxGeometry x="620" y="2280" width="180" height="90" as="geometry" />
        </mxCell>
        <mxCell id="BDBOMCY-2Hl1vsMtAM6a-122" value="" style="shape=component;jettyWidth=8;jettyHeight=4;" vertex="1" parent="BDBOMCY-2Hl1vsMtAM6a-121">
          <mxGeometry x="1" width="20" height="20" relative="1" as="geometry">
            <mxPoint x="-24" y="4" as="offset" />
          </mxGeometry>
        </mxCell>
        <mxCell id="BDBOMCY-2Hl1vsMtAM6a-126" value="TurnSystem" style="swimlane;fontStyle=0;childLayout=stackLayout;horizontal=1;startSize=26;fillColor=none;horizontalStack=0;resizeParent=1;resizeParentMax=0;resizeLast=0;collapsible=1;marginBottom=0;whiteSpace=wrap;html=1;" vertex="1" parent="1">
          <mxGeometry x="340" y="518" width="140" height="52" as="geometry" />
        </mxCell>
        <mxCell id="BDBOMCY-2Hl1vsMtAM6a-127" value="+ processTurn()" style="text;strokeColor=none;fillColor=none;align=left;verticalAlign=top;spacingLeft=4;spacingRight=4;overflow=hidden;rotatable=0;points=[[0,0.5],[1,0.5]];portConstraint=eastwest;whiteSpace=wrap;html=1;" vertex="1" parent="BDBOMCY-2Hl1vsMtAM6a-126">
          <mxGeometry y="26" width="140" height="26" as="geometry" />
        </mxCell>
        <mxCell id="BDBOMCY-2Hl1vsMtAM6a-134" style="edgeStyle=orthogonalEdgeStyle;rounded=0;orthogonalLoop=1;jettySize=auto;html=1;entryX=0;entryY=0.5;entryDx=0;entryDy=0;" edge="1" parent="1" source="BDBOMCY-2Hl1vsMtAM6a-131" target="BDBOMCY-2Hl1vsMtAM6a-28">
          <mxGeometry relative="1" as="geometry">
            <Array as="points">
              <mxPoint x="830" y="-195" />
              <mxPoint x="830" y="147" />
            </Array>
          </mxGeometry>
        </mxCell>
        <mxCell id="BDBOMCY-2Hl1vsMtAM6a-135" style="edgeStyle=orthogonalEdgeStyle;rounded=0;orthogonalLoop=1;jettySize=auto;html=1;entryX=0;entryY=0.5;entryDx=0;entryDy=0;" edge="1" parent="1" source="BDBOMCY-2Hl1vsMtAM6a-131" target="BDBOMCY-2Hl1vsMtAM6a-36">
          <mxGeometry relative="1" as="geometry">
            <Array as="points">
              <mxPoint x="830" y="-195" />
              <mxPoint x="830" y="225" />
            </Array>
          </mxGeometry>
        </mxCell>
        <mxCell id="BDBOMCY-2Hl1vsMtAM6a-131" value="&lt;p style=&quot;margin:0px;margin-top:6px;text-align:center;&quot;&gt;&lt;b&gt;SelectableComponent&lt;/b&gt;&lt;/p&gt;&lt;hr size=&quot;1&quot; style=&quot;border-style:solid;&quot;&gt;&lt;p style=&quot;margin:0px;margin-left:8px;&quot;&gt;+ tag: String&lt;/p&gt;" style="align=left;overflow=fill;html=1;dropTarget=0;whiteSpace=wrap;" vertex="1" parent="1">
          <mxGeometry x="620" y="-240" width="180" height="90" as="geometry" />
        </mxCell>
        <mxCell id="BDBOMCY-2Hl1vsMtAM6a-132" value="" style="shape=component;jettyWidth=8;jettyHeight=4;" vertex="1" parent="BDBOMCY-2Hl1vsMtAM6a-131">
          <mxGeometry x="1" width="20" height="20" relative="1" as="geometry">
            <mxPoint x="-24" y="4" as="offset" />
          </mxGeometry>
        </mxCell>
      </root>
    </mxGraphModel>
  </diagram>
</mxfile>
